<svg xmlns="http://www.w3.org/2000/svg" width="900" height="420">
<rect width="900" height="420" fill="white"/>
<text x="450" y="34" text-anchor="middle" font-size="14" font-weight="bold" font-family="Arial,sans-serif" fill="#1a1a2e">Total events of Gemini API (Direct) by App (Last 7 Days)</text>
<line x1="65" y1="335" x2="880" y2="335" stroke="#EEEEEE" stroke-width="1"/>
<text x="59" y="339" text-anchor="end" font-size="10" font-family="Arial,sans-serif" fill="#666">0</text>
<line x1="65" y1="279" x2="880" y2="279" stroke="#EEEEEE" stroke-width="1"/>
<text x="59" y="283" text-anchor="end" font-size="10" font-family="Arial,sans-serif" fill="#666">20</text>
<line x1="65" y1="223" x2="880" y2="223" stroke="#EEEEEE" stroke-width="1"/>
<text x="59" y="227" text-anchor="end" font-size="10" font-family="Arial,sans-serif" fill="#666">40</text>
<line x1="65" y1="167" x2="880" y2="167" stroke="#EEEEEE" stroke-width="1"/>
<text x="59" y="171" text-anchor="end" font-size="10" font-family="Arial,sans-serif" fill="#666">60</text>
<line x1="65" y1="111" x2="880" y2="111" stroke="#EEEEEE" stroke-width="1"/>
<text x="59" y="115" text-anchor="end" font-size="10" font-family="Arial,sans-serif" fill="#666">80</text>
<line x1="65" y1="55" x2="880" y2="55" stroke="#EEEEEE" stroke-width="1"/>
<text x="59" y="59" text-anchor="end" font-size="10" font-family="Arial,sans-serif" fill="#666">100</text>
<rect x="88.3" y="167.0" width="69.9" height="168.0" fill="#1A6CF7"/>
<rect x="88.3" y="164.2" width="69.9" height="2.8" fill="#00C2A0"/>
<rect x="88.3" y="155.8" width="69.9" height="8.4" fill="#F7931A"/>
<rect x="88.3" y="150.2" width="69.9" height="5.6" fill="#A456F0"/>
<text x="123.2" y="351" text-anchor="middle" font-size="10" font-family="Arial,sans-serif" fill="#666">05/17</text>
<rect x="204.7" y="169.8" width="69.9" height="165.2" fill="#1A6CF7"/>
<rect x="204.7" y="164.2" width="69.9" height="5.6" fill="#00C2A0"/>
<text x="239.6" y="351" text-anchor="middle" font-size="10" font-family="Arial,sans-serif" fill="#666">05/18</text>
<rect x="321.1" y="105.4" width="69.9" height="229.6" fill="#1A6CF7"/>
<rect x="321.1" y="99.8" width="69.9" height="5.6" fill="#00C2A0"/>
<text x="356.1" y="351" text-anchor="middle" font-size="10" font-family="Arial,sans-serif" fill="#666">05/19</text>
<rect x="437.6" y="234.2" width="69.9" height="100.8" fill="#1A6CF7"/>
<rect x="437.6" y="231.4" width="69.9" height="2.8" fill="#00C2A0"/>
<text x="472.5" y="351" text-anchor="middle" font-size="10" font-family="Arial,sans-serif" fill="#666">05/20</text>
<rect x="554.0" y="239.8" width="69.9" height="95.2" fill="#1A6CF7"/>
<rect x="554.0" y="234.2" width="69.9" height="5.6" fill="#00C2A0"/>
<text x="588.9" y="351" text-anchor="middle" font-size="10" font-family="Arial,sans-serif" fill="#666">05/21</text>
<rect x="670.4" y="239.8" width="69.9" height="95.2" fill="#1A6CF7"/>
<rect x="670.4" y="234.2" width="69.9" height="5.6" fill="#00C2A0"/>
<text x="705.4" y="351" text-anchor="middle" font-size="10" font-family="Arial,sans-serif" fill="#666">05/22</text>
<text x="821.8" y="351" text-anchor="middle" font-size="10" font-family="Arial,sans-serif" fill="#666">05/23</text>
<rect x="65" y="370" width="10" height="10" rx="2" fill="#1A6CF7"/>
<text x="81" y="379" font-size="11" font-family="Arial,sans-serif" fill="#444">GoogleAlertManager</text>
<rect x="216" y="370" width="10" height="10" rx="2" fill="#00C2A0"/>
<text x="232" y="379" font-size="11" font-family="Arial,sans-serif" fill="#444">CompanyInfo</text>
<rect x="318" y="370" width="10" height="10" rx="2" fill="#F7931A"/>
<text x="334" y="379" font-size="11" font-family="Arial,sans-serif" fill="#444">TAIEX_Revenue_History</text>
<rect x="490" y="370" width="10" height="10" rx="2" fill="#A456F0"/>
<text x="506" y="379" font-size="11" font-family="Arial,sans-serif" fill="#444">TAIEX_Finguider_Pro</text>
</svg>