<svg xmlns="http://www.w3.org/2000/svg" width="900" height="420">
<rect width="900" height="420" fill="white"/>
<text x="450" y="34" text-anchor="middle" font-size="14" font-weight="bold" font-family="Arial,sans-serif" fill="#1a1a2e">Total events of Llm-Cli-APIServer by App (Last 7 Days)</text>
<line x1="65" y1="335" x2="880" y2="335" stroke="#EEEEEE" stroke-width="1"/>
<text x="59" y="339" text-anchor="end" font-size="10" font-family="Arial,sans-serif" fill="#666">0</text>
<line x1="65" y1="279" x2="880" y2="279" stroke="#EEEEEE" stroke-width="1"/>
<text x="59" y="283" text-anchor="end" font-size="10" font-family="Arial,sans-serif" fill="#666">2</text>
<line x1="65" y1="223" x2="880" y2="223" stroke="#EEEEEE" stroke-width="1"/>
<text x="59" y="227" text-anchor="end" font-size="10" font-family="Arial,sans-serif" fill="#666">4</text>
<line x1="65" y1="167" x2="880" y2="167" stroke="#EEEEEE" stroke-width="1"/>
<text x="59" y="171" text-anchor="end" font-size="10" font-family="Arial,sans-serif" fill="#666">6</text>
<line x1="65" y1="111" x2="880" y2="111" stroke="#EEEEEE" stroke-width="1"/>
<text x="59" y="115" text-anchor="end" font-size="10" font-family="Arial,sans-serif" fill="#666">8</text>
<line x1="65" y1="55" x2="880" y2="55" stroke="#EEEEEE" stroke-width="1"/>
<text x="59" y="59" text-anchor="end" font-size="10" font-family="Arial,sans-serif" fill="#666">11</text>
<rect x="88.3" y="105.9" width="69.9" height="229.1" fill="#1A6CF7"/>
<text x="123.2" y="351" text-anchor="middle" font-size="10" font-family="Arial,sans-serif" fill="#666">06/13</text>
<rect x="204.7" y="156.8" width="69.9" height="178.2" fill="#1A6CF7"/>
<text x="239.6" y="351" text-anchor="middle" font-size="10" font-family="Arial,sans-serif" fill="#666">06/14</text>
<rect x="321.1" y="207.7" width="69.9" height="127.3" fill="#1A6CF7"/>
<text x="356.1" y="351" text-anchor="middle" font-size="10" font-family="Arial,sans-serif" fill="#666">06/15</text>
<rect x="437.6" y="233.2" width="69.9" height="101.8" fill="#1A6CF7"/>
<text x="472.5" y="351" text-anchor="middle" font-size="10" font-family="Arial,sans-serif" fill="#666">06/16</text>
<rect x="554.0" y="182.3" width="69.9" height="152.7" fill="#1A6CF7"/>
<text x="588.9" y="351" text-anchor="middle" font-size="10" font-family="Arial,sans-serif" fill="#666">06/17</text>
<text x="705.4" y="351" text-anchor="middle" font-size="10" font-family="Arial,sans-serif" fill="#666">06/18</text>
<text x="821.8" y="351" text-anchor="middle" font-size="10" font-family="Arial,sans-serif" fill="#666">06/19</text>
<rect x="65" y="370" width="10" height="10" rx="2" fill="#1A6CF7"/>
<text x="81" y="379" font-size="11" font-family="Arial,sans-serif" fill="#444">CompanyInfo</text>
</svg>