<svg xmlns="http://www.w3.org/2000/svg" width="900" height="420">
<rect width="900" height="420" fill="white"/>
<text x="450" y="34" text-anchor="middle" font-size="14" font-weight="bold" font-family="Arial,sans-serif" fill="#1a1a2e">Total events by Model (Last 7 Days)</text>
<line x1="65" y1="335" x2="880" y2="335" stroke="#EEEEEE" stroke-width="1"/>
<text x="59" y="339" text-anchor="end" font-size="10" font-family="Arial,sans-serif" fill="#666">0</text>
<line x1="65" y1="279" x2="880" y2="279" stroke="#EEEEEE" stroke-width="1"/>
<text x="59" y="283" text-anchor="end" font-size="10" font-family="Arial,sans-serif" fill="#666">220</text>
<line x1="65" y1="223" x2="880" y2="223" stroke="#EEEEEE" stroke-width="1"/>
<text x="59" y="227" text-anchor="end" font-size="10" font-family="Arial,sans-serif" fill="#666">440</text>
<line x1="65" y1="167" x2="880" y2="167" stroke="#EEEEEE" stroke-width="1"/>
<text x="59" y="171" text-anchor="end" font-size="10" font-family="Arial,sans-serif" fill="#666">660</text>
<line x1="65" y1="111" x2="880" y2="111" stroke="#EEEEEE" stroke-width="1"/>
<text x="59" y="115" text-anchor="end" font-size="10" font-family="Arial,sans-serif" fill="#666">880</text>
<line x1="65" y1="55" x2="880" y2="55" stroke="#EEEEEE" stroke-width="1"/>
<text x="59" y="59" text-anchor="end" font-size="10" font-family="Arial,sans-serif" fill="#666">1100</text>
<rect x="88.3" y="149.7" width="69.9" height="185.3" fill="#1A6CF7"/>
<rect x="88.3" y="141.0" width="69.9" height="8.7" fill="#00C2A0"/>
<rect x="88.3" y="140.5" width="69.9" height="0.5" fill="#F7931A"/>
<rect x="88.3" y="139.5" width="69.9" height="1.0" fill="#A456F0"/>
<text x="123.2" y="351" text-anchor="middle" font-size="10" font-family="Arial,sans-serif" fill="#666">09/04</text>
<rect x="204.7" y="260.9" width="69.9" height="74.1" fill="#1A6CF7"/>
<rect x="204.7" y="248.7" width="69.9" height="12.2" fill="#00C2A0"/>
<rect x="204.7" y="242.6" width="69.9" height="6.1" fill="#F7931A"/>
<rect x="204.7" y="241.6" width="69.9" height="1.0" fill="#A456F0"/>
<text x="239.6" y="351" text-anchor="middle" font-size="10" font-family="Arial,sans-serif" fill="#666">09/05</text>
<rect x="321.1" y="142.3" width="69.9" height="192.7" fill="#1A6CF7"/>
<rect x="321.1" y="133.7" width="69.9" height="8.7" fill="#00C2A0"/>
<rect x="321.1" y="132.6" width="69.9" height="1.0" fill="#F7931A"/>
<rect x="321.1" y="132.1" width="69.9" height="0.5" fill="#A456F0"/>
<text x="356.1" y="351" text-anchor="middle" font-size="10" font-family="Arial,sans-serif" fill="#666">09/06</text>
<rect x="437.6" y="242.1" width="69.9" height="92.9" fill="#1A6CF7"/>
<rect x="437.6" y="233.7" width="69.9" height="8.4" fill="#00C2A0"/>
<rect x="437.6" y="232.2" width="69.9" height="1.5" fill="#A456F0"/>
<text x="472.5" y="351" text-anchor="middle" font-size="10" font-family="Arial,sans-serif" fill="#666">09/07</text>
<rect x="554.0" y="137.7" width="69.9" height="197.3" fill="#1A6CF7"/>
<rect x="554.0" y="129.1" width="69.9" height="8.7" fill="#00C2A0"/>
<rect x="554.0" y="126.0" width="69.9" height="3.1" fill="#A456F0"/>
<text x="588.9" y="351" text-anchor="middle" font-size="10" font-family="Arial,sans-serif" fill="#666">09/08</text>
<rect x="670.4" y="217.7" width="69.9" height="117.3" fill="#1A6CF7"/>
<rect x="670.4" y="178.2" width="69.9" height="39.5" fill="#00C2A0"/>
<rect x="670.4" y="177.7" width="69.9" height="0.5" fill="#F7931A"/>
<rect x="670.4" y="176.7" width="69.9" height="1.0" fill="#A456F0"/>
<text x="705.4" y="351" text-anchor="middle" font-size="10" font-family="Arial,sans-serif" fill="#666">09/09</text>
<rect x="786.9" y="137.7" width="69.9" height="197.3" fill="#1A6CF7"/>
<rect x="786.9" y="102.1" width="69.9" height="35.6" fill="#00C2A0"/>
<rect x="786.9" y="99.8" width="69.9" height="2.3" fill="#F7931A"/>
<rect x="786.9" y="98.8" width="69.9" height="1.0" fill="#A456F0"/>
<text x="821.8" y="351" text-anchor="middle" font-size="10" font-family="Arial,sans-serif" fill="#666">09/10</text>
<rect x="65" y="370" width="10" height="10" rx="2" fill="#1A6CF7"/>
<text x="81" y="379" font-size="11" font-family="Arial,sans-serif" fill="#444">baidu/Unlimited-OCR</text>
<rect x="223" y="370" width="10" height="10" rx="2" fill="#00C2A0"/>
<text x="239" y="379" font-size="11" font-family="Arial,sans-serif" fill="#444">gemini-2.5-flash</text>
<rect x="360" y="370" width="10" height="10" rx="2" fill="#F7931A"/>
<text x="376" y="379" font-size="11" font-family="Arial,sans-serif" fill="#444">whisper-large-v3</text>
<rect x="497" y="370" width="10" height="10" rx="2" fill="#A456F0"/>
<text x="513" y="379" font-size="11" font-family="Arial,sans-serif" fill="#444">chatgpt-pro</text>
</svg>