<svg xmlns="http://www.w3.org/2000/svg" width="900" height="420">
<rect width="900" height="420" fill="white"/>
<text x="450" y="34" text-anchor="middle" font-size="14" font-weight="bold" font-family="Arial,sans-serif" fill="#1a1a2e">Total events of Llm-Cli-APIServer by App (Last 7 Days)</text>
<line x1="65" y1="335" x2="880" y2="335" stroke="#EEEEEE" stroke-width="1"/>
<text x="59" y="339" text-anchor="end" font-size="10" font-family="Arial,sans-serif" fill="#666">0</text>
<line x1="65" y1="279" x2="880" y2="279" stroke="#EEEEEE" stroke-width="1"/>
<text x="59" y="283" text-anchor="end" font-size="10" font-family="Arial,sans-serif" fill="#666">18</text>
<line x1="65" y1="223" x2="880" y2="223" stroke="#EEEEEE" stroke-width="1"/>
<text x="59" y="227" text-anchor="end" font-size="10" font-family="Arial,sans-serif" fill="#666">36</text>
<line x1="65" y1="167" x2="880" y2="167" stroke="#EEEEEE" stroke-width="1"/>
<text x="59" y="171" text-anchor="end" font-size="10" font-family="Arial,sans-serif" fill="#666">54</text>
<line x1="65" y1="111" x2="880" y2="111" stroke="#EEEEEE" stroke-width="1"/>
<text x="59" y="115" text-anchor="end" font-size="10" font-family="Arial,sans-serif" fill="#666">72</text>
<line x1="65" y1="55" x2="880" y2="55" stroke="#EEEEEE" stroke-width="1"/>
<text x="59" y="59" text-anchor="end" font-size="10" font-family="Arial,sans-serif" fill="#666">90</text>
<rect x="88.3" y="216.8" width="69.9" height="118.2" fill="#1A6CF7"/>
<rect x="88.3" y="173.2" width="69.9" height="43.6" fill="#00C2A0"/>
<rect x="88.3" y="151.4" width="69.9" height="21.8" fill="#F7931A"/>
<rect x="88.3" y="129.7" width="69.9" height="21.8" fill="#A456F0"/>
<rect x="88.3" y="111.0" width="69.9" height="18.7" fill="#FF5733"/>
<rect x="88.3" y="98.6" width="69.9" height="12.4" fill="#20B2AA"/>
<rect x="88.3" y="95.4" width="69.9" height="3.1" fill="#9C27B0"/>
<rect x="88.3" y="92.3" width="69.9" height="3.1" fill="#673AB7"/>
<text x="123.2" y="351" text-anchor="middle" font-size="10" font-family="Arial,sans-serif" fill="#666">05/05</text>
<rect x="204.7" y="297.7" width="69.9" height="37.3" fill="#1A6CF7"/>
<text x="239.6" y="351" text-anchor="middle" font-size="10" font-family="Arial,sans-serif" fill="#666">05/06</text>
<rect x="321.1" y="328.8" width="69.9" height="6.2" fill="#1A6CF7"/>
<rect x="321.1" y="325.7" width="69.9" height="3.1" fill="#E91E63"/>
<text x="356.1" y="351" text-anchor="middle" font-size="10" font-family="Arial,sans-serif" fill="#666">05/07</text>
<text x="472.5" y="351" text-anchor="middle" font-size="10" font-family="Arial,sans-serif" fill="#666">05/08</text>
<text x="588.9" y="351" text-anchor="middle" font-size="10" font-family="Arial,sans-serif" fill="#666">05/09</text>
<rect x="670.4" y="331.9" width="69.9" height="3.1" fill="#1A6CF7"/>
<text x="705.4" y="351" text-anchor="middle" font-size="10" font-family="Arial,sans-serif" fill="#666">05/10</text>
<rect x="786.9" y="331.9" width="69.9" height="3.1" fill="#1A6CF7"/>
<text x="821.8" y="351" text-anchor="middle" font-size="10" font-family="Arial,sans-serif" fill="#666">05/11</text>
</svg>